HIERARCHY
ROOT Hips
{
	OFFSET 0.000000 0.000000 0.000000
	CHANNELS 6 Xposition Yposition Zposition Zrotation Yrotation Xrotation 
	JOINT LHipJoint
	{
		OFFSET 0.000000 0.000000 0.000000
		CHANNELS 3 Zrotation Yrotation Xrotation
		JOINT LeftUpLeg
		{
			OFFSET 1.363060 -1.794630 0.839290
			CHANNELS 3 Zrotation Yrotation Xrotation
			JOINT LeftLeg
			{
				OFFSET 2.448110 -6.726130 0.000000
				CHANNELS 3 Zrotation Yrotation Xrotation
				JOINT LeftFoot
				{
					OFFSET 2.562200 -7.039590 0.000000
					CHANNELS 3 Zrotation Yrotation Xrotation
					JOINT LeftToeBase
					{
						OFFSET 0.157640 -0.433110 2.322550
						CHANNELS 3 Zrotation Yrotation Xrotation
						End Site
						{
							OFFSET 0.000000 0.000000 0.000000
						}
					}
				}
			}
		}
	}
	JOINT RHipJoint
	{
		OFFSET 0.000000 0.000000 0.000000
		CHANNELS 3 Zrotation Yrotation Xrotation
		JOINT RightUpLeg
		{
			OFFSET -1.305520 -1.794630 0.839290
			CHANNELS 3 Zrotation Yrotation Xrotation
			JOINT RightLeg
			{
				OFFSET -2.542530 -6.985550 0.000000
				CHANNELS 3 Zrotation Yrotation Xrotation
				JOINT RightFoot
				{
					OFFSET -2.568260 -7.056230 0.000000
					CHANNELS 3 Zrotation Yrotation Xrotation
					JOINT RightToeBase
					{
						OFFSET -0.164730 -0.452590 2.363150
						CHANNELS 3 Zrotation Yrotation Xrotation
						End Site
						{
							OFFSET 0.000000 0.000000 0.000000
						}
					}
				}
			}
		}
	}
}
MOTION
Frames: 11
Frame Time: 0.008333
25.313472 15.796245 4.154558 163.580353 -89.311278 -137.457899 -13.296246 4.039842 -1.352064 -0.158205 8.929816 3.652383 -1.386382 0.491038 10.446091 0.851757 5.961008 2.947545 0.948699 0.000000 -84.603900 7.578905 1.926605 2.526445 4.538926 4.153486 -67.422403 1.380426 -3.312067 41.406538 -0.244902 -0.240042 0.526959 -0.548500 0.000000 -48.925000
25.090504 15.819781 4.117605 159.432858 -89.453186 -133.170072 -13.658651 4.095849 -1.207132 0.405133 8.650930 2.868598 -1.182668 0.689196 12.189036 0.926569 6.303728 5.251896 1.200200 0.000000 -85.580900 7.323044 1.792108 2.350239 5.175236 4.039556 -67.080884 1.379674 -3.350869 42.391274 -0.245396 -0.150616 -0.211638 -0.507100 0.000000 -48.636100
24.869438 15.847700 4.078910 156.836167 -89.642146 -130.445212 -13.951919 4.120479 -1.078329 0.950032 8.419394 1.939104 -0.978637 0.875538 14.162137 1.024908 6.662601 7.548033 1.460300 -0.000000 -85.513400 7.119048 1.654772 2.179078 5.844353 3.887146 -66.618866 1.409103 -3.380372 43.204356 -0.248533 -0.028824 -1.137674 -0.455600 -0.000000 -48.389100
24.650747 15.879464 4.038461 155.133869 -89.839895 -128.625067 -14.196874 4.113906 -0.965867 1.453367 8.247453 0.864543 -0.783297 1.045667 16.352348 1.145329 7.051186 9.746524 1.727300 0.000000 -84.288700 6.950991 1.516581 2.015295 6.522995 3.713048 -66.048914 1.461909 -3.396315 43.851102 -0.254015 0.119861 -2.193916 -0.398100 -0.000000 -48.171000
24.434900 15.914485 3.996002 -25.940852 -89.978225 52.562308 -14.396070 4.076595 -0.870435 1.885685 8.131583 -0.343361 -0.606033 1.196895 18.734064 1.284083 7.497057 11.751465 2.006399 0.000000 -81.897100 6.816273 1.381466 1.863231 7.181702 3.527783 -65.389326 1.530976 -3.398009 44.341164 -0.261319 0.291744 -3.320978 -0.337800 0.000000 -47.970400
24.222161 15.952277 3.951738 -26.659967 -89.826646 53.391027 -14.556953 4.008060 -0.794093 2.233947 8.074548 -1.674212 -0.453660 1.329876 21.279612 1.434259 8.020518 13.470463 2.302500 -0.000000 -78.471900 6.707253 1.247304 1.728007 7.802425 3.346059 -64.657481 1.610397 -3.385087 44.679988 -0.270627 0.476133 -4.459049 -0.279100 -0.000000 -47.781100
24.012804 15.992503 3.905800 -27.162586 -89.716353 54.001017 -14.680740 3.911163 -0.739680 2.483475 8.072350 -3.109768 -0.330039 1.448729 23.950814 1.588878 8.644842 14.833300 2.622701 0.000000 -74.271800 6.621752 1.114657 1.613172 8.367532 3.179044 -63.868222 1.694562 -3.358343 44.875219 -0.281527 0.664209 -5.556706 -0.224700 -0.000000 -47.599900
23.806769 16.034979 3.859070 -27.711532 -89.646709 54.659215 -14.784009 3.785825 -0.706603 2.645799 8.125621 -4.642776 -0.232329 1.558445 26.708544 1.742042 9.378419 15.803902 2.967800 0.000000 -69.716900 6.544168 0.973578 1.524000 8.881666 3.047212 -63.032366 1.780844 -3.317012 44.921864 -0.295299 0.836362 -6.569221 -0.178000 0.000000 -47.431000
23.604327 16.079510 3.811424 -28.282629 -89.625679 55.336721 -14.857899 3.638676 -0.699029 2.700274 8.216942 -6.240851 -0.157715 1.665266 29.503652 1.890822 10.235870 16.373332 3.339400 -0.000000 -65.114800 6.481788 0.831437 1.457927 9.324706 2.949617 -62.158073 1.864766 -3.263992 44.835546 -0.310445 0.991680 -7.474428 -0.138500 -0.000000 -47.273700
23.405002 16.126201 3.763711 -29.063043 -89.647207 56.222626 -14.916611 3.470018 -0.712461 2.661820 8.332609 -7.891970 -0.097325 1.771904 32.291776 2.035129 11.212470 16.572395 3.730500 -0.000000 -60.919400 6.421588 0.679953 1.416861 9.706658 2.899065 -61.246820 1.946177 -3.198717 44.609363 -0.328195 1.114969 -8.255767 -0.106800 0.000000 -47.134499
23.209159 16.175127 3.715943 -30.063256 -89.711325 57.321502 -14.956292 3.283627 -0.748025 2.524660 8.455087 -9.570285 -0.045601 1.880568 35.034201 2.174852 12.290053 16.427571 4.125200 0.000000 -57.234200 6.366953 0.523234 1.395958 10.019711 2.891203 -60.295906 2.023995 -3.123126 44.251124 -0.347776 1.206650 -8.915953 -0.081600 -0.000000 -47.013500
